<svg width="84" height="84" viewBox="0 0 84 84" fill="none" xmlns="http://www.w3.org/2000/svg">
<rect x="0.5" y="0.5" width="83" height="83" rx="9.5" fill="white" stroke="black"/>
<path d="M42.5612 37C39.3214 25.4 50.6788 16.9641 62 21.4M62 21.4L57.5453 24.2M62 21.4L59.1652 17" stroke="black"/>
<path d="M45.3973 39.5389C51.3088 29.0456 65.3048 31.1115 70.1735 42.2534M70.1735 42.2534L65.0436 41.0833M70.1735 42.2534L71.2802 37.1376" stroke="black"/>
<path d="M46 43.5612C57.6 40.3214 66.0359 51.6788 61.6 63M61.6 63L58.8 58.5453M61.6 63L66 60.1652" stroke="black"/>
<path d="M43.7452 46.3968C54.2385 52.3083 52.1727 66.3043 41.0308 71.173M41.0308 71.173L42.2009 66.0431M41.0308 71.173L46.1466 72.2797" stroke="black"/>
<path d="M39.4388 47C42.6786 58.6 31.3212 67.0359 20 62.6M20 62.6L24.4547 59.8M20 62.6L22.8348 67" stroke="black"/>
<path d="M36.8879 44.7454C30.9764 55.2387 16.9803 53.1728 12.1117 42.0309M12.1117 42.0309L17.2416 43.201M12.1117 42.0309L11.005 47.1467" stroke="black"/>
<path d="M36 41.4388C24.4 44.6786 15.9641 33.3212 20.4 22M20.4 22L23.2 26.4547M20.4 22L16 24.8348" stroke="black"/>
<path d="M38.5389 37.8874C28.0456 31.9759 30.1115 17.9799 41.2534 13.1112M41.2534 13.1112L40.0833 18.2411M41.2534 13.1112L36.1376 12.0045" stroke="black"/>
</svg>
