<svg width="84" height="84" viewBox="0 0 84 84" fill="none" xmlns="http://www.w3.org/2000/svg">
<rect x="0.5" y="0.5" width="83" height="83" rx="9.5" fill="white" stroke="black"/>
<path d="M34.6929 42.0001C30.6929 27.5001 44.7152 16.9551 58.6929 22.5M58.6929 22.5L53.1929 26M58.6929 22.5L55.1929 17" stroke="black"/>
<path d="M30.1001 44.6507C19.386 34.0933 26.2572 17.95 41.1346 15.7631M41.1346 15.7631L38.1215 21.5442M41.1346 15.7631L35.3535 12.75" stroke="black"/>
<path d="M39.6 41.9971C43.3859 27.4397 60.8021 25.3188 70.1346 37.1096M70.1346 37.1096L63.6215 37.3907M70.1346 37.1096L69.8535 30.5964" stroke="black"/>
<path d="M15.9999 69C30.4999 73 41.0449 58.9776 35.5 45M35.5 45L32 50.5M35.5 45L41 48.5" stroke="black"/>
</svg>
