<svg width="147" height="25" viewBox="0 0 147 25" fill="none" xmlns="http://www.w3.org/2000/svg">
<path d="M9.732 19.36C7.988 19.36 6.448 19.008 5.112 18.304C3.784 17.592 2.744 16.584 1.992 15.28C1.248 13.976 0.876 12.436 0.876 10.66C0.876 9.364 1.092 8.176 1.524 7.096C1.964 6.016 2.584 5.084 3.384 4.3C4.184 3.516 5.128 2.912 6.216 2.488C7.304 2.056 8.496 1.84 9.792 1.84C11.24 1.84 12.44 2.024 13.392 2.392C14.352 2.752 15.228 3.268 16.02 3.94L13.836 7.564C13.388 7.092 12.844 6.736 12.204 6.496C11.572 6.256 10.864 6.136 10.08 6.136C9.352 6.136 8.704 6.24 8.136 6.448C7.568 6.656 7.088 6.956 6.696 7.348C6.312 7.732 6.016 8.2 5.808 8.752C5.608 9.296 5.508 9.912 5.508 10.6C5.508 11.528 5.692 12.324 6.06 12.988C6.428 13.652 6.956 14.164 7.644 14.524C8.34 14.876 9.176 15.052 10.152 15.052C10.872 15.052 11.592 14.94 12.312 14.716C13.04 14.492 13.732 14.14 14.388 13.66L16.404 17.356C15.636 17.94 14.704 18.42 13.608 18.796C12.512 19.172 11.22 19.36 9.732 19.36ZM18.3533 19V1.72H22.7213V9.484L21.7973 8.392C22.3253 7.76 22.9533 7.252 23.6813 6.868C24.4093 6.476 25.2173 6.28 26.1053 6.28C27.2813 6.28 28.2533 6.512 29.0213 6.976C29.7973 7.432 30.3773 8.04 30.7613 8.8C31.1533 9.552 31.3493 10.368 31.3493 11.248V19H26.9813V12.472C26.9813 11.808 26.7933 11.268 26.4173 10.852C26.0413 10.436 25.5173 10.224 24.8453 10.216C24.3813 10.216 23.9893 10.308 23.6693 10.492C23.3573 10.676 23.1213 10.944 22.9613 11.296C22.8013 11.648 22.7213 12.06 22.7213 12.532V19H18.3533ZM37.8411 19.36C37.0331 19.36 36.3011 19.204 35.6451 18.892C34.9891 18.572 34.4651 18.116 34.0731 17.524C33.6891 16.924 33.4971 16.204 33.4971 15.364C33.4971 14.636 33.6731 13.996 34.0251 13.444C34.3851 12.892 34.9171 12.44 35.6211 12.088C36.3331 11.736 37.2171 11.496 38.2731 11.368C39.3371 11.24 40.5731 11.236 41.9811 11.356L42.0051 14.008C41.3491 13.88 40.7451 13.808 40.1931 13.792C39.6411 13.776 39.1611 13.816 38.7531 13.912C38.3451 14 38.0291 14.144 37.8051 14.344C37.5811 14.544 37.4691 14.804 37.4691 15.124C37.4691 15.5 37.6131 15.784 37.9011 15.976C38.1971 16.16 38.5851 16.252 39.0651 16.252C39.4971 16.252 39.8851 16.18 40.2291 16.036C40.5731 15.892 40.8451 15.672 41.0451 15.376C41.2531 15.08 41.3571 14.704 41.3571 14.248V11.584C41.3571 11.176 41.2731 10.812 41.1051 10.492C40.9451 10.172 40.6731 9.924 40.2891 9.748C39.9131 9.564 39.4011 9.472 38.7531 9.472C38.1131 9.472 37.4811 9.568 36.8571 9.76C36.2331 9.952 35.6771 10.228 35.1891 10.588L34.0971 7.648C34.9131 7.144 35.7891 6.772 36.7251 6.532C37.6611 6.284 38.5811 6.16 39.4851 6.16C40.6611 6.16 41.7011 6.348 42.6051 6.724C43.5171 7.092 44.2291 7.672 44.7411 8.464C45.2611 9.256 45.5211 10.276 45.5211 11.524V19H41.7771V17.74C41.3931 18.26 40.8611 18.66 40.1811 18.94C39.5011 19.22 38.7211 19.36 37.8411 19.36ZM48.4939 19V6.64H52.8619V8.008C53.1979 7.4 53.6619 6.956 54.2539 6.676C54.8539 6.396 55.5099 6.256 56.2219 6.256C56.5019 6.256 56.7459 6.276 56.9539 6.316C57.1699 6.348 57.3819 6.384 57.5899 6.424L57.0859 10.9C56.8059 10.788 56.5019 10.704 56.1739 10.648C55.8539 10.584 55.5379 10.552 55.2259 10.552C54.5379 10.552 53.9699 10.744 53.5219 11.128C53.0819 11.504 52.8619 12.076 52.8619 12.844V19H48.4939ZM59.3923 19V6.64H63.7603V19H59.3923ZM61.5763 4.924C60.8883 4.924 60.2883 4.716 59.7763 4.3C59.2723 3.876 59.0203 3.296 59.0203 2.56C59.0203 1.832 59.2723 1.256 59.7763 0.831999C60.2883 0.408 60.8883 0.196 61.5763 0.196C62.2643 0.196 62.8603 0.408 63.3643 0.831999C63.8763 1.256 64.1323 1.832 64.1323 2.56C64.1323 3.296 63.8763 3.876 63.3643 4.3C62.8603 4.716 62.2643 4.924 61.5763 4.924ZM72.4003 19.36C70.9763 19.36 69.8603 18.964 69.0523 18.172C68.2523 17.372 67.8523 16.188 67.8523 14.62V3.124H72.2203V6.64H74.9563V10.072H72.2203V13.912C72.2203 14.504 72.3603 14.92 72.6403 15.16C72.9203 15.4 73.2643 15.52 73.6723 15.52C73.9123 15.52 74.1523 15.492 74.3923 15.436C74.6403 15.372 74.8683 15.28 75.0763 15.16L75.5923 18.568C75.2163 18.784 74.7483 18.968 74.1883 19.12C73.6283 19.28 73.0323 19.36 72.4003 19.36ZM65.5603 10.072V6.64H68.2243V10.072H65.5603ZM79.8902 24.352C79.2902 24.352 78.7022 24.292 78.1262 24.172C77.5582 24.06 77.0382 23.88 76.5662 23.632L77.4782 19.996C77.7422 20.132 78.0342 20.24 78.3542 20.32C78.6742 20.4 78.9782 20.44 79.2662 20.44C79.6662 20.44 80.0182 20.36 80.3222 20.2C80.6262 20.04 80.8342 19.768 80.9462 19.384L81.0662 19L76.2902 6.64H81.0062L83.5262 14.764L85.9742 6.64H90.5822L85.5302 20.056C85.1062 21.12 84.6022 21.964 84.0182 22.588C83.4342 23.22 82.7942 23.672 82.0982 23.944C81.4022 24.216 80.6662 24.352 79.8902 24.352ZM92.5174 19V2.2H96.9094L103.305 11.86V2.2H107.577V19H103.185L96.7894 9.196V19H92.5174ZM116.965 19.36C115.589 19.36 114.385 19.088 113.353 18.544C112.321 17.992 111.517 17.228 110.941 16.252C110.373 15.268 110.089 14.12 110.089 12.808C110.089 11.848 110.257 10.972 110.593 10.18C110.929 9.38 111.401 8.692 112.009 8.116C112.617 7.532 113.333 7.08 114.157 6.76C114.989 6.44 115.901 6.28 116.893 6.28C118.005 6.28 118.989 6.476 119.845 6.868C120.709 7.252 121.421 7.796 121.981 8.5C122.541 9.196 122.925 10.012 123.133 10.948C123.349 11.884 123.349 12.904 123.133 14.008H114.037C114.061 14.416 114.201 14.772 114.457 15.076C114.721 15.38 115.077 15.62 115.525 15.796C115.973 15.964 116.489 16.048 117.073 16.048C117.817 16.048 118.513 15.96 119.161 15.784C119.809 15.6 120.445 15.312 121.069 14.92L122.389 17.836C122.013 18.124 121.517 18.384 120.901 18.616C120.293 18.84 119.641 19.02 118.945 19.156C118.249 19.292 117.589 19.36 116.965 19.36ZM114.313 11.128H119.005C118.997 10.6 118.789 10.176 118.381 9.856C117.981 9.536 117.445 9.376 116.773 9.376C116.093 9.376 115.525 9.536 115.069 9.856C114.621 10.176 114.369 10.6 114.313 11.128ZM130.274 19.336C129.09 19.336 128.014 19.196 127.046 18.916C126.078 18.628 125.234 18.224 124.514 17.704L125.822 14.74C126.526 15.164 127.266 15.5 128.042 15.748C128.826 15.996 129.558 16.12 130.238 16.12C130.806 16.12 131.238 16.052 131.534 15.916C131.83 15.772 131.978 15.564 131.978 15.292C131.978 15.052 131.842 14.88 131.57 14.776C131.298 14.672 130.75 14.548 129.926 14.404C128.222 14.14 126.974 13.676 126.182 13.012C125.39 12.348 124.994 11.432 124.994 10.264C124.994 9.44 125.222 8.72 125.678 8.104C126.142 7.488 126.774 7.012 127.574 6.676C128.382 6.332 129.31 6.16 130.358 6.16C131.382 6.16 132.354 6.296 133.274 6.568C134.194 6.84 134.978 7.208 135.626 7.672L134.366 10.636C134.022 10.388 133.63 10.172 133.19 9.988C132.758 9.796 132.306 9.648 131.834 9.544C131.37 9.432 130.926 9.376 130.502 9.376C130.006 9.376 129.606 9.444 129.302 9.58C129.006 9.708 128.858 9.892 128.858 10.132C128.858 10.372 128.982 10.548 129.23 10.66C129.486 10.772 130.026 10.916 130.85 11.092C132.658 11.452 133.938 11.936 134.69 12.544C135.442 13.152 135.818 14.008 135.818 15.112C135.818 15.96 135.582 16.704 135.11 17.344C134.646 17.976 133.998 18.468 133.166 18.82C132.334 19.164 131.37 19.336 130.274 19.336ZM143.744 19.36C142.32 19.36 141.204 18.964 140.396 18.172C139.596 17.372 139.196 16.188 139.196 14.62V3.124H143.564V6.64H146.3V10.072H143.564V13.912C143.564 14.504 143.704 14.92 143.984 15.16C144.264 15.4 144.608 15.52 145.016 15.52C145.256 15.52 145.496 15.492 145.736 15.436C145.984 15.372 146.212 15.28 146.42 15.16L146.936 18.568C146.56 18.784 146.092 18.968 145.532 19.12C144.972 19.28 144.376 19.36 143.744 19.36ZM136.904 10.072V6.64H139.568V10.072H136.904Z" fill="#0B666A"/>
</svg>
