<svg xmlns="http://www.w3.org/2000/svg" xmlns:xlink="http://www.w3.org/1999/xlink" viewBox="0,0,256,256" width="150px" height="150px" fill-rule="nonzero"><g fill="#0b666a" fill-rule="nonzero" stroke="none" stroke-width="1" stroke-linecap="butt" stroke-linejoin="miter" stroke-miterlimit="10" stroke-dasharray="" stroke-dashoffset="0" font-family="none" font-weight="none" font-size="none" text-anchor="none" style="mix-blend-mode: normal"><g transform="scale(5.12,5.12)"><path d="M12,2c-3.30078,0 -6,2.69922 -6,6v34.41797c0,3.17578 2.83203,5.58203 6,5.58203h32v-2h-32c-2.16016,0 -4,-1.62109 -4,-3.58203c0,-1.96094 1.80078,-3.41797 4,-3.41797h32v-37zM12,4h30v33h-30c-1.49219,0 -2.90625,0.53906 -4,1.41797v-30.41797c0,-2.21875 1.78125,-4 4,-4zM15,9c-1.09375,0 -2,0.90625 -2,2v4c0,1.09375 0.90625,2 2,2h21c1.09375,0 2,-0.90625 2,-2v-4c0,-1.09375 -0.90625,-2 -2,-2zM15,11h21v4h-21z"></path></g></g></svg>