<svg xmlns="http://www.w3.org/2000/svg" xmlns:xlink="http://www.w3.org/1999/xlink" viewBox="0,0,256,256" width="150px" height="150px" fill-rule="nonzero"><g fill="#0b666a" fill-rule="nonzero" stroke="none" stroke-width="1" stroke-linecap="butt" stroke-linejoin="miter" stroke-miterlimit="10" stroke-dasharray="" stroke-dashoffset="0" font-family="none" font-weight="none" font-size="none" text-anchor="none" style="mix-blend-mode: normal"><g transform="scale(5.12,5.12)"><path d="M40,2.04688c-2.76562,0 -5.67578,1.17188 -7.81641,2.28906c-1.03906,-0.16406 -3.01562,-0.29297 -5.13281,0.19141c-1.14844,0.26172 -2.30078,0.71094 -3.21875,1.52734c-0.91406,0.81641 -1.53906,2.05078 -1.53906,3.55469v0.96875c-0.15234,-0.01172 -0.36328,-0.09375 -0.50781,-0.09375c-1.51562,0 -3.66797,0.09766 -5.56641,1.09375c-1.89844,0.99219 -3.4375,3.03906 -3.4375,6.29297v0.66016c-0.32031,0.00391 -0.66016,-0.04297 -0.96484,0.03125c-1.35547,0.33203 -3.01562,0.87891 -4.36328,2.15625c-1.34375,1.28125 -2.28906,3.28906 -2.28906,6.17188v1.01563c-0.03125,0.03516 -0.05859,0.02344 -0.08594,0.06641c-1.12109,1.78906 -3.03125,6.32813 -3.03125,11.05469c0,3.01563 0.67188,5.24219 1.89063,6.74219c1.21875,1.50391 2.97656,2.18359 4.76953,2.18359c3.66016,0 7.35938,-1.77344 11.28906,-4.63672c3.92578,-2.86328 8.10938,-6.85156 12.71875,-11.48828c9.01953,-9.06641 15.23828,-16.46875 15.23828,-23.82812c0,-2.21875 -1.21875,-3.85156 -2.78516,-4.75c-1.57031,-0.90234 -3.46094,-1.20312 -5.16797,-1.20312zM40,3.95313c1.46875,0 3.07813,0.30078 4.21875,0.95313c1.13672,0.64844 1.82813,1.51563 1.82813,3.09375c0,6.24219 -5.73047,13.48438 -14.6875,22.48438c-4.58594,4.61328 -8.72266,8.54297 -12.48828,11.28906c-3.76562,2.74609 -7.13281,4.27344 -10.16406,4.27344c-1.33984,0 -2.4375,-0.43359 -3.28516,-1.48047c-0.85156,-1.04297 -1.46875,-2.80859 -1.46875,-5.53906c0,-3.95312 1.67188,-8.03516 2.5625,-9.60937c0.23438,0.02734 0.51172,0.07031 0.89844,0.14453c0.94141,0.17578 2.22266,0.45313 3.55469,0.6875c1.33594,0.23438 2.71875,0.43359 3.9375,0.45313c1.21875,0.01953 2.36328,-0.01562 3.15234,-0.92969c0.40234,-0.46875 0.39063,-1.25781 0.14844,-1.71094c-0.24219,-0.45312 -0.59375,-0.76172 -1.01172,-1.06641c-0.83594,-0.60937 -1.99609,-1.14062 -3.32812,-1.54297c-2.02344,-0.60937 -4.45312,-0.9375 -6.51563,-0.26172c0.26563,-1.36328 0.72266,-2.42578 1.41797,-3.08594c0.96875,-0.92187 2.27734,-1.39062 3.5,-1.6875c0.42188,-0.10156 1.53906,0.01172 2.84766,0.35938c1.30859,0.34375 2.84375,0.85938 4.36328,1.33203c1.51563,0.46875 3.01563,0.89453 4.35547,1.04297c0.66797,0.07422 1.30469,0.08594 1.91016,-0.04687c0.60156,-0.13281 1.20313,-0.43359 1.60938,-0.96484c0.41797,-0.54297 0.44922,-1.32812 0.21875,-1.89844c-0.23047,-0.57031 -0.625,-1.02344 -1.11719,-1.46094c-0.97656,-0.86719 -2.375,-1.64453 -3.95312,-2.23828c-1.57422,-0.59375 -3.32422,-0.98828 -4.99609,-0.98047c-0.82031,0.00781 -1.62891,0.12109 -2.38281,0.37109c0.40234,-1.25391 1.03125,-2.16797 1.98047,-2.66797c1.39453,-0.73047 3.26563,-0.875 4.67969,-0.875c0.50781,0 1.63281,0.23828 2.89453,0.58203c1.26172,0.34766 2.69922,0.79297 4.07031,1.16016c1.36719,0.36719 2.64453,0.66797 3.73438,0.69531c0.54297,0.01172 1.05469,-0.02344 1.5625,-0.29297c0.50781,-0.26953 0.91016,-0.92578 0.91016,-1.53516c0,-1.125 -0.67187,-2.05859 -1.53516,-2.73828c-0.86719,-0.68359 -1.96875,-1.18359 -3.17578,-1.53906c-1.89453,-0.55859 -3.95703,-0.60937 -5.82422,-0.25391c0.15234,-0.38672 0.375,-0.71484 0.68359,-0.99219c0.56641,-0.50391 1.42188,-0.87109 2.37109,-1.08984c1.89844,-0.4375 4.19531,-0.25 4.69531,-0.15234l0.32813,0.0625l0.30078,-0.15625c1.98828,-1.05859 4.91406,-2.1875 7.19922,-2.1875zM26.43359,10.07031c1.08203,0.01563 2.24219,0.17969 3.27344,0.48047c1.03125,0.30469 1.94141,0.74609 2.53125,1.21094c0.52734,0.41406 0.68359,0.77734 0.72656,1.10938c-0.09766,0.02344 -0.17578,0.05469 -0.43359,0.04688c-0.74609,-0.01953 -1.96875,-0.27344 -3.28906,-0.62891c-1.32031,-0.35547 -2.75,-0.79687 -4.05469,-1.15625c-0.82422,-0.22656 -1.45703,-0.29297 -2.14453,-0.41016l0.56641,-0.23047c0.73047,-0.29687 1.73828,-0.4375 2.82422,-0.42187zM17.51953,17.47266c1.35156,-0.00781 2.91406,0.33203 4.31641,0.85547c1.40234,0.52734 2.64453,1.25 3.35156,1.87891c0.35547,0.31641 0.55859,0.61328 0.61328,0.74609c0.01953,0.04297 0.02344,0.03125 0.02734,0.03516c-0.07812,0.10156 -0.19922,0.1875 -0.48828,0.25c-0.30078,0.06641 -0.75,0.07813 -1.29297,0.01563c-1.08594,-0.11719 -2.51562,-0.51172 -4.00391,-0.97266c-1.48828,-0.45703 -3.03516,-0.98047 -4.44141,-1.35156c-0.45703,-0.12109 -0.86719,-0.19141 -1.28906,-0.27344l0.11328,-0.125c0.66797,-0.70312 1.74609,-1.05078 3.09375,-1.05859zM9.67188,26.76953c1.18359,-0.03516 2.47656,0.16016 3.64063,0.51172c1.16797,0.35156 2.19141,0.84766 2.76172,1.26172c0.03906,0.02734 0.02734,0.03125 0.0625,0.05859c-0.25,0.08203 -0.46484,0.20313 -1.19922,0.19531c-1.02734,-0.01562 -2.34766,-0.19922 -3.63672,-0.42578c-1.28516,-0.23047 -2.55078,-0.5 -3.53516,-0.68359c-0.33594,-0.06641 -0.59375,-0.10156 -0.86719,-0.14062c0.70703,-0.48437 1.67578,-0.74219 2.77344,-0.77734z"></path></g></g></svg>