<svg xmlns="http://www.w3.org/2000/svg" xmlns:xlink="http://www.w3.org/1999/xlink" viewBox="0,0,256,256" width="150px" height="150px" fill-rule="nonzero"><g fill="#0b666a" fill-rule="nonzero" stroke="none" stroke-width="1" stroke-linecap="butt" stroke-linejoin="miter" stroke-miterlimit="10" stroke-dasharray="" stroke-dashoffset="0" font-family="none" font-weight="none" font-size="none" text-anchor="none" style="mix-blend-mode: normal"><g transform="scale(5.12,5.12)"><path d="M34.21875,4.125c-1.01953,0.05859 -2.02344,0.30859 -2.96875,0.78125l-5.5,2.6875h-15.625l-8.875,-2.15625c-0.13281,-0.03906 -0.26953,-0.04687 -0.40625,-0.03125c-0.48437,0.05859 -0.85156,0.45703 -0.875,0.94531c-0.02344,0.48438 0.30469,0.91797 0.78125,1.02344l9,2.1875l0.125,0.03125h11.78125l-8.5,4.15625c-0.03516,0.01563 -0.05859,0.04688 -0.09375,0.0625c-1.32031,0.58203 -1.66797,2.38672 -0.6875,3.4375l-0.03125,0.03125c0.01563,0.01563 0.04688,0.01563 0.0625,0.03125c2.97656,3.26172 7.69141,4.34375 11.84375,2.71875h0.03125l5.875,-2.28125l12.125,12.15625c0.91797,0.91797 0.91797,2.36328 0,3.28125c-0.91797,0.91797 -2.36328,0.91797 -3.28125,0c-0.39844,-0.32031 -0.97266,-0.28906 -1.33594,0.07031c-0.35937,0.36328 -0.39062,0.9375 -0.07031,1.33594c0.91797,0.91797 0.91797,2.39453 0,3.3125c-0.91797,0.91797 -2.36328,0.91797 -3.28125,0l-0.71875,-0.71875c-0.39844,-0.32031 -0.97266,-0.28906 -1.33594,0.07031c-0.35937,0.36328 -0.39062,0.9375 -0.07031,1.33594c0.91797,0.91797 0.91797,2.39453 0,3.3125c-0.91797,0.91797 -2.36328,0.91797 -3.28125,0l-0.6875,-0.71875c-0.38672,-0.39844 -1.02344,-0.40234 -1.42187,-0.01562c-0.39844,0.38672 -0.40234,1.02344 -0.01562,1.42188c0.91797,0.91797 0.91797,2.39453 0,3.3125c-0.91797,0.91797 -2.36328,0.91797 -3.28125,0l-1.25,-1.25l0.75,-0.75c1.46484,-1.46484 1.46484,-3.84766 0,-5.3125c-0.73047,-0.73047 -1.69531,-1.09375 -2.65625,-1.09375c-0.01172,0 -0.01953,0 -0.03125,0c0.01563,-0.98437 -0.34766,-1.97266 -1.09375,-2.71875c-0.73047,-0.73047 -1.69531,-1.09375 -2.65625,-1.09375c-0.05078,0 -0.10547,-0.00391 -0.15625,0c0.03125,-1.00391 -0.32812,-2.01562 -1.09375,-2.78125c-0.73047,-0.73047 -1.69531,-1.125 -2.65625,-1.125c-0.05078,0 -0.10547,-0.00391 -0.15625,0c0.03125,-1.00391 -0.32812,-2.01562 -1.09375,-2.78125c-0.73047,-0.73047 -1.69531,-1.09375 -2.65625,-1.09375c-0.96094,0 -1.92578,0.36328 -2.65625,1.09375l-0.90625,0.90625l-4.03125,-0.6875c-0.0625,-0.01562 -0.125,-0.02734 -0.1875,-0.03125c-0.55078,-0.03516 -1.02734,0.38672 -1.0625,0.9375c-0.03516,0.55078 0.38672,1.02734 0.9375,1.0625l3.28125,0.59375c-0.29687,1.23047 0.01172,2.57422 0.96875,3.53125c0.77344,0.77344 1.80078,1.13672 2.8125,1.09375c-0.04297,1.01172 0.32031,2.03906 1.09375,2.8125c0.77344,0.77344 1.80078,1.13672 2.8125,1.09375c-0.03125,1.00391 0.32813,2.01563 1.09375,2.78125c0.74609,0.74609 1.73438,1.10938 2.71875,1.09375c-0.02344,0.98828 0.32813,1.98438 1.0625,2.71875l0.03125,0.03125c1.04297,1.01953 2.54297,1.28906 3.84375,0.84375l1.53125,1.53125c1.67969,1.67969 4.44531,1.67969 6.125,0c0.81641,-0.81641 1.19531,-1.89453 1.21875,-2.96875c1.44531,0.38281 3.03125,0.09375 4.15625,-1.03125c0.81641,-0.81641 1.22656,-1.89453 1.25,-2.96875c1.44141,0.37891 3.03125,0.09375 4.15625,-1.03125c0.96094,-0.96094 1.32422,-2.26953 1.1875,-3.53125c1.26172,0.14063 2.57031,-0.22656 3.53125,-1.1875c1.07422,-1.07422 1.45703,-2.58203 1.15625,-3.96875l0.59375,-0.59375l3.6875,-0.53125c0.55078,-0.08594 0.92969,-0.60547 0.84375,-1.15625c-0.08594,-0.55078 -0.60547,-0.92969 -1.15625,-0.84375l-4,0.625l-0.3125,0.03125l-0.59375,0.59375c-0.07031,-0.08203 -0.14062,-0.17187 -0.21875,-0.25l-12.3125,-12.3125c-0.04687,-0.04687 -0.10156,-0.08984 -0.15625,-0.125c-0.01172,-0.01172 -0.01953,-0.01953 -0.03125,-0.03125c-0.26172,-0.38672 -0.75391,-0.53906 -1.1875,-0.375l-6.5,2.5c-3.41797,1.35156 -7.26562,0.47266 -9.6875,-2.21875l-0.03125,-0.03125c-0.12891,-0.12891 -0.13672,-0.21875 0.03125,-0.28125h0.0625l0.03125,-0.03125l12.34375,-6.03125c0.21094,-0.03125 0.41016,-0.12891 0.5625,-0.28125l5.28125,-2.59375h0.03125c1.84375,-0.92187 3.99609,-0.73437 5.6875,0.40625l0.375,0.4375l0.09375,0.125l0.125,0.0625c1.81641,1.25 4.00391,1.58203 6.0625,1.03125v0.03125l0.0625,-0.03125l4.65625,-0.96875c0.54297,-0.12109 0.88672,-0.66016 0.76563,-1.20312c-0.12109,-0.54297 -0.66016,-0.88672 -1.20312,-0.76562l-4.6875,1l-0.03125,0.03125h-0.03125c-1.49219,0.41406 -3.03125,0.14063 -4.375,-0.75l-0.375,-0.4375l-0.09375,-0.09375l-0.125,-0.09375c-1.14844,-0.80469 -2.46094,-1.24219 -3.8125,-1.34375c-0.33984,-0.02344 -0.69141,-0.01953 -1.03125,0zM8.75,27.84375c0.4375,0 0.88281,0.19531 1.25,0.5625c0.73438,0.73438 0.73438,1.76563 0,2.5l-0.78125,0.75l-0.09375,0.09375l-0.125,0.15625c-0.73437,0.73438 -1.76562,0.73438 -2.5,0c-0.60156,-0.60156 -0.69141,-1.39062 -0.3125,-2.0625c0.17578,-0.125 0.30469,-0.29687 0.375,-0.5l0.8125,-0.78125l0.125,-0.15625c0.36719,-0.36719 0.8125,-0.5625 1.25,-0.5625zM12.65625,31.75c0.4375,0 0.88281,0.19531 1.25,0.5625c0.73438,0.73438 0.73438,1.73438 0,2.46875l-1,1c-0.73437,0.73438 -1.76562,0.73438 -2.5,0c-0.73437,-0.73437 -0.73437,-1.73437 0,-2.46875l1,-1c0.36719,-0.36719 0.8125,-0.5625 1.25,-0.5625zM16.5625,35.65625c0.4375,0 0.85156,0.19531 1.21875,0.5625c0.60547,0.60547 0.70703,1.39453 0.3125,2.0625c-0.13672,0.10156 -0.28125,0.1875 -0.40625,0.3125l-1,1v0.03125h-0.03125c-0.10937,0.12109 -0.19141,0.24609 -0.28125,0.375c-0.66797,0.39453 -1.45703,0.29297 -2.0625,-0.3125c-0.73437,-0.73437 -0.73437,-1.73437 0,-2.46875l0.75,-0.78125l0.1875,-0.15625l0.0625,-0.0625c0.36719,-0.36719 0.8125,-0.5625 1.25,-0.5625zM20.34375,39.46875c0.4375,0 0.88281,0.16406 1.25,0.53125c0.73438,0.73438 0.73438,1.76563 0,2.5l-1,1c-0.08594,0.08594 -0.15625,0.18359 -0.25,0.25c-0.00781,0.00391 -0.02344,-0.00391 -0.03125,0c-0.69922,0.48438 -1.57422,0.39453 -2.21875,-0.25c-0.47266,-0.47266 -0.58203,-1.41797 -0.25,-2.125c0.125,-0.09766 0.26172,-0.16797 0.375,-0.28125l1,-1c0.13281,-0.13281 0.23438,-0.28906 0.34375,-0.4375c0.25,-0.125 0.51953,-0.1875 0.78125,-0.1875z"></path></g></g></svg>