<svg xmlns="http://www.w3.org/2000/svg" xmlns:xlink="http://www.w3.org/1999/xlink" viewBox="0,0,256,256" width="128px" height="128px" fill-rule="nonzero"><g fill="#0b666a" fill-rule="nonzero" stroke="none" stroke-width="1" stroke-linecap="butt" stroke-linejoin="miter" stroke-miterlimit="10" stroke-dasharray="" stroke-dashoffset="0" font-family="none" font-weight="none" font-size="none" text-anchor="none" style="mix-blend-mode: normal"><g transform="scale(4,4)"><path d="M13,6c-3.9,0 -7,3.1 -7,7v38c0,3.9 3.1,7 7,7h38c3.9,0 7,-3.1 7,-7v-38c0,-3.9 -3.1,-7 -7,-7zM13,8h38c2.8,0 5,2.2 5,5v38c0,2.8 -2.2,5 -5,5h-38c-2.8,0 -5,-2.2 -5,-5v-38c0,-2.8 2.2,-5 5,-5zM45.66992,12.8418c-1.80812,-0.04025 -3.43751,0.77111 -4.54102,2.00586c-0.78285,-0.81987 -1.75903,-1.47149 -2.93555,-1.79883c-0.54094,-0.17429 -0.99918,-0.14844 -1.39258,-0.14844c-0.28411,0 -0.69505,0.005 -1.15234,0.14258c-2.27778,0.40324 -4.04323,2.17014 -4.52539,4.33984l-0.00391,0.02148l-0.00391,0.02148c-0.35832,2.03046 0.36346,3.96697 1.67773,5.28125l0.19727,0.19727l6.30078,6.40039l0.00195,0.00195c0.95355,0.95355 2.56012,0.95355 3.51367,0l6.59961,-6.59961c1.05714,-1.05714 1.79297,-2.49973 1.79297,-4.10742c0,-0.52222 -0.09961,-0.73294 -0.09961,-1.09961v-0.10937l-0.02344,-0.10742c-0.48932,-2.20196 -2.29395,-4.00365 -4.62109,-4.37109c-0.26457,-0.04177 -0.52685,-0.06456 -0.78516,-0.07031zM45.57422,14.83984c0.18793,0.003 0.37864,0.01856 0.57031,0.04883c1.46984,0.23208 2.66095,1.42595 2.97461,2.82031c0.02494,0.43571 0.08008,0.82763 0.08008,0.89063c0,0.99231 -0.46417,1.9505 -1.20703,2.69336l-6.59961,6.59961c-0.24645,0.24645 -0.4391,0.24645 -0.68555,0l-6.29687,-6.39648l-0.20312,-0.20312c-0.87993,-0.87993 -1.35185,-2.13495 -1.12109,-3.49414c0.31751,-1.38955 1.50479,-2.57909 2.9707,-2.81055l0.08203,-0.01367l0.07813,-0.02539c0.11026,-0.03675 0.28398,-0.04883 0.58398,-0.04883c0.4,0 0.73619,0.03315 0.7832,0.04883l0.02539,0.00781l0.02734,0.00781c0.90705,0.24738 1.62749,0.72773 2.21094,1.39453l-0.08008,-0.10547c0.31335,0.47002 0.84076,0.67188 1.29492,0.67188c0.45417,0 0.89772,-0.17311 1.24414,-0.51953l0.04688,-0.04492l0.03906,-0.05078c0.67139,-0.8728 1.86613,-1.49169 3.18164,-1.4707zM40.98633,14.95508c-0.04792,0.05726 -0.13422,0.07565 -0.17969,0.13477l0.08594,-0.09766c0.02565,-0.02565 0.06322,-0.02611 0.09375,-0.03711zM12,48c-0.6,0 -1,0.4 -1,1v2c0,0.6 0.4,1 1,1c0.6,0 1,-0.4 1,-1v-2c0,-0.6 -0.4,-1 -1,-1zM17,48c-0.6,0 -1,0.4 -1,1v2c0,0.6 0.4,1 1,1c0.6,0 1,-0.4 1,-1v-2c0,-0.6 -0.4,-1 -1,-1zM22,48c-0.6,0 -1,0.4 -1,1v2c0,0.6 0.4,1 1,1c0.6,0 1,-0.4 1,-1v-2c0,-0.6 -0.4,-1 -1,-1zM27,48c-0.6,0 -1,0.4 -1,1v2c0,0.6 0.4,1 1,1c0.6,0 1,-0.4 1,-1v-2c0,-0.6 -0.4,-1 -1,-1zM32,48c-0.6,0 -1,0.4 -1,1v2c0,0.6 0.4,1 1,1c0.6,0 1,-0.4 1,-1v-2c0,-0.6 -0.4,-1 -1,-1zM37,48c-0.6,0 -1,0.4 -1,1v2c0,0.6 0.4,1 1,1c0.6,0 1,-0.4 1,-1v-2c0,-0.6 -0.4,-1 -1,-1zM42,48c-0.6,0 -1,0.4 -1,1v2c0,0.6 0.4,1 1,1c0.6,0 1,-0.4 1,-1v-2c0,-0.6 -0.4,-1 -1,-1zM47,48c-0.6,0 -1,0.4 -1,1v2c0,0.6 0.4,1 1,1c0.6,0 1,-0.4 1,-1v-2c0,-0.6 -0.4,-1 -1,-1zM52,48c-0.6,0 -1,0.4 -1,1v2c0,0.6 0.4,1 1,1c0.6,0 1,-0.4 1,-1v-2c0,-0.6 -0.4,-1 -1,-1z"></path></g></g></svg>