<svg xmlns="http://www.w3.org/2000/svg" xmlns:xlink="http://www.w3.org/1999/xlink" viewBox="0,0,256,256" width="150px" height="150px" fill-rule="nonzero"><g fill="#0b666a" fill-rule="nonzero" stroke="none" stroke-width="1" stroke-linecap="butt" stroke-linejoin="miter" stroke-miterlimit="10" stroke-dasharray="" stroke-dashoffset="0" font-family="none" font-weight="none" font-size="none" text-anchor="none" style="mix-blend-mode: normal"><g transform="scale(5.12,5.12)"><path d="M25,1c-0.41255,0.00036 -0.78255,0.254 -0.93164,0.63867l-6.16602,15.89648l-16.95313,0.86523c-0.41309,0.02091 -0.77069,0.29396 -0.89967,0.68696c-0.12898,0.393 -0.00272,0.82485 0.31764,1.08648l13.20117,10.79297l-4.33594,16.37695c-0.10595,0.39905 0.04421,0.82219 0.37801,1.06519c0.3338,0.243 0.78261,0.25589 1.12981,0.03247l14.25977,-9.15234l14.25977,9.15234c0.3472,0.22343 0.79601,0.21053 1.12981,-0.03247c0.3338,-0.243 0.48396,-0.66614 0.37801,-1.06519l-4.33594,-16.37695l13.20117,-10.79297c0.32037,-0.26163 0.44662,-0.69348 0.31764,-1.08648c-0.12898,-0.393 -0.48658,-0.66605 -0.89967,-0.68696l-16.95312,-0.86523l-6.16602,-15.89648c-0.14909,-0.38467 -0.51909,-0.63831 -0.93164,-0.63867zM25,4.76367l5.4668,14.09766c0.14289,0.36781 0.4887,0.61722 0.88281,0.63672l15.00977,0.76758l-11.69141,9.56055c-0.30336,0.24804 -0.43392,0.6504 -0.33398,1.0293l3.8418,14.51367l-12.63477,-8.11133c-0.32954,-0.21196 -0.75249,-0.21196 -1.08203,0l-12.63477,8.11133l3.8418,-14.51367c0.09993,-0.3789 -0.03062,-0.78126 -0.33399,-1.0293l-11.69141,-9.56055l15.00977,-0.76758c0.39411,-0.0195 0.73992,-0.26891 0.88281,-0.63672z"></path></g></g></svg>