<svg xmlns="http://www.w3.org/2000/svg" xmlns:xlink="http://www.w3.org/1999/xlink" viewBox="0,0,256,256" width="150px" height="150px" fill-rule="nonzero"><g fill-opacity="0" fill="#dddddd" fill-rule="nonzero" stroke="none" stroke-width="1" stroke-linecap="butt" stroke-linejoin="miter" stroke-miterlimit="10" stroke-dasharray="" stroke-dashoffset="0" font-family="none" font-weight="none" font-size="none" text-anchor="none" style="mix-blend-mode: normal"><path d="M0,256v-256h256v256z" id="bgRectangle"></path></g><g fill="#0b666a" fill-rule="nonzero" stroke="none" stroke-width="1" stroke-linecap="butt" stroke-linejoin="miter" stroke-miterlimit="10" stroke-dasharray="" stroke-dashoffset="0" font-family="none" font-weight="none" font-size="none" text-anchor="none" style="mix-blend-mode: normal"><g transform="translate(0.00007,9.21755) scale(5.12,5.12)"><path d="M24.96484,1c-0.21166,0.00754 -0.41546,0.08209 -0.58203,0.21289l-23,18c-0.28131,0.22047 -0.42361,0.57428 -0.37328,0.92813c0.05033,0.35385 0.28565,0.65395 0.61728,0.78722c0.33163,0.13328 0.70917,0.07947 0.99037,-0.14113l1.38281,-1.08203v26.29492c0.00006,0.55226 0.44774,0.99994 1,1h40c0.55226,-0.00006 0.99994,-0.44774 1,-1v-26.29492l1.38281,1.08203c0.2812,0.22059 0.65873,0.27439 0.99036,0.14111c0.33162,-0.13328 0.56693,-0.43337 0.61727,-0.78721c0.05034,-0.35384 -0.09195,-0.70765 -0.37325,-0.92812l-23,-18c-0.18554,-0.14568 -0.41659,-0.22108 -0.65234,-0.21289zM25,3.26953l19,14.86914v26.86133h-38v-26.86133zM22.55664,15.03711c-2.11511,0 -3.85352,1.73733 -3.85352,3.85352c0,0.97134 0.45945,1.79609 1.01758,2.56836c0.55813,0.77227 1.26074,1.4952 1.95313,2.13477c1.38477,1.27914 2.75586,2.22852 2.75586,2.22852l0.57227,0.39648l0.57031,-0.39844c0,0 1.37171,-0.9532 2.75586,-2.23437c0.69208,-0.64059 1.39337,-1.36574 1.95117,-2.13672c0.5578,-0.77098 1.01758,-1.59101 1.01758,-2.56055c0,-2.11511 -1.73775,-3.85156 -3.85352,-3.85156c-0.96232,0 -1.76626,0.44202 -2.44336,1.03125c-0.6771,-0.58923 -1.48103,-1.03125 -2.44336,-1.03125zM22.55664,17.03711c0.68161,0 1.26186,0.36156 1.58594,0.90234l0.85742,1.43164l0.85742,-1.43164c0.32408,-0.54078 0.90433,-0.90234 1.58594,-0.90234c1.03624,0 1.85352,0.81667 1.85352,1.85156c0,0.23946 -0.20348,0.78715 -0.63867,1.38867c-0.4352,0.60152 -1.05753,1.25493 -1.68945,1.83984c-0.97913,0.90629 -1.57377,1.3103 -1.96875,1.59766c-0.39438,-0.28558 -0.9896,-0.68734 -1.96875,-1.5918c-0.63161,-0.58343 -1.25458,-1.23421 -1.68945,-1.83594c-0.43487,-0.60173 -0.63867,-1.14983 -0.63867,-1.39648c0,-1.03581 0.81862,-1.85352 1.85352,-1.85352zM35.0957,27.91016c-0.76978,0 -1.53956,0.29151 -2.12109,0.87305l-1.83398,1.83398c-0.50506,-0.9532 -1.49609,-1.61719 -2.64062,-1.61719h-8.22656c-0.747,0 -1.46769,0.27889 -2.01953,0.78125l-6.02344,5.47852c-0.40882,0.37161 -0.43899,1.00427 -0.06738,1.41309c0.37161,0.40882 1.00427,0.43899 1.41309,0.06738l6.02539,-5.47852c0,-0.00065 0,-0.0013 0,-0.00195c0.18416,-0.1676 0.42287,-0.25977 0.67188,-0.25977h8.22656c0.56503,0 1,0.43497 1,1c0,0.56503 -0.43497,1 -1,1h-4c-0.36064,-0.0051 -0.69608,0.18438 -0.87789,0.49587c-0.18181,0.3115 -0.18181,0.69676 0,1.00825c0.18181,0.3115 0.51725,0.50097 0.87789,0.49587h4c1.01163,0 1.80925,-0.56302 2.30078,-1.36523c0.00019,-0.00032 0.00176,0.00032 0.00195,0c0.15348,-0.05132 0.29222,-0.13912 0.4043,-0.25586l3.18164,-3.18164c0.39893,-0.39893 1.01514,-0.39893 1.41406,0c0.39846,0.39846 0.39753,1.01314 0,1.41211v0.00195l-5.43555,5.12109c-0.18551,0.17501 -0.42975,0.27198 -0.68359,0.27148c-0.00065,0 -0.0013,0 -0.00195,0l-8.30469,-0.00391c-0.76309,0 -1.49963,0.29047 -2.05664,0.81445l-3.58984,3.37305c-0.40289,0.37862 -0.42256,1.01215 -0.04395,1.41504c0.37862,0.40289 1.01215,0.42256 1.41504,0.04395l3.58789,-3.375c0.18453,-0.17359 0.43131,-0.27101 0.68555,-0.27148l8.30469,0.00391c0.76616,0.0015 1.50211,-0.29142 2.05859,-0.81641l5.45703,-5.14258c0.00726,-0.00641 0.01442,-0.01292 0.02148,-0.01953c0.96812,-0.96812 0.93655,-2.38823 0.29297,-3.53125c0.00099,-0.26655 -0.10447,-0.52247 -0.29297,-0.71094c-0.58154,-0.58154 -1.35131,-0.87305 -2.12109,-0.87305z"></path></g></g></svg>