<svg xmlns="http://www.w3.org/2000/svg" xmlns:xlink="http://www.w3.org/1999/xlink" viewBox="0,0,256,256" width="150px" height="150px" fill-rule="nonzero"><g fill="#0b666a" fill-rule="nonzero" stroke="none" stroke-width="1" stroke-linecap="butt" stroke-linejoin="miter" stroke-miterlimit="10" stroke-dasharray="" stroke-dashoffset="0" font-family="none" font-weight="none" font-size="none" text-anchor="none" style="mix-blend-mode: normal"><g transform="translate(2.56,4.096) scale(5.12,5.12)"><path d="M14,0c-1.91016,0 -3.75781,0.32031 -5.5,1.08594c-0.33594,0.13281 -0.57422,0.44141 -0.61719,0.80469c-0.04687,0.36328 0.10938,0.71875 0.40625,0.92969c0.29297,0.21484 0.68359,0.25 1.01172,0.09375c1.45703,-0.63672 3.01172,-0.91406 4.69922,-0.91406c6.66406,0 12,5.33594 12,12c0,6.66406 -5.33594,12 -12,12c-6.66406,0 -12,-5.33594 -12,-12c0,-3.03906 1.16406,-5.75781 3,-7.91406v2.61328c-0.00391,0.35938 0.18359,0.69531 0.49609,0.87891c0.3125,0.17969 0.69531,0.17969 1.00781,0c0.3125,-0.18359 0.5,-0.51953 0.49609,-0.87891v-5.69922h-5.69922c-0.35937,-0.00391 -0.69531,0.18359 -0.87891,0.49609c-0.17969,0.3125 -0.17969,0.69531 0,1.00781c0.18359,0.3125 0.51953,0.5 0.87891,0.49609h1.99219c-2.00781,2.44922 -3.29297,5.55469 -3.29297,9c0,7.73828 6.26172,14 14,14c7.73828,0 14,-6.26172 14,-14c0,-7.73828 -6.26172,-14 -14,-14zM38,0c-1.09375,0 -2,0.90625 -2,2v2h-9.53125c0.50781,0.62891 0.96094,1.30078 1.36719,2h8.16406v2c0,1.09375 0.90625,2 2,2h2c1.09375,0 2,-0.90625 2,-2v-2h5v7h-17.05078c0.01953,0.33203 0.05078,0.66016 0.05078,1c0,0.33984 -0.03125,0.66797 -0.05078,1h17.05078v31h-42v-18.78125c-0.71484,-0.48828 -1.375,-1.03906 -2,-1.62891v20.41016c0,1.16016 0.83984,2 2,2h42c1.16016,0 2,-0.83984 2,-2v-40c0,-1.16016 -0.83984,-2 -2,-2h-5v-2c0,-1.09375 -0.90625,-2 -2,-2zM38,2h2v6h-2zM13.98438,4.98438c-0.55078,0.01172 -0.99219,0.46484 -0.98437,1.01563v7.83984c-0.03125,0.21484 0.00391,0.43359 0.10938,0.625c0.08984,0.17969 0.23438,0.32813 0.41016,0.42578l3.88281,2.91016c0.44141,0.33203 1.06641,0.24219 1.39844,-0.20312c0.33203,-0.44141 0.24219,-1.06641 -0.20312,-1.39844l-3.59766,-2.69922v-7.5c0.00391,-0.26953 -0.10156,-0.53125 -0.29297,-0.72266c-0.19141,-0.19141 -0.45312,-0.29687 -0.72266,-0.29297zM29.1875,19c-0.22656,0.69141 -0.50781,1.35547 -0.82422,2h3.63672v5h-7v7h-5v-4.17578c-0.64453,0.26172 -1.31641,0.47266 -2,0.64844v3.52734h-5v-3.05078c-0.67969,-0.04297 -1.34766,-0.11719 -2,-0.24219v12.29297h30v-23zM34,21h5v5h-5zM27,28h5v5h-5zM34,28h5v5h-5zM13,35h5v5h-5zM20,35h5v5h-5zM27,35h5v5h-5zM34,35h5v5h-5z"></path></g></g></svg>