<svg xmlns="http://www.w3.org/2000/svg" xmlns:xlink="http://www.w3.org/1999/xlink" viewBox="0,0,256,256" width="150px" height="150px" fill-rule="nonzero"><g fill-opacity="0" fill="#dddddd" fill-rule="nonzero" stroke="none" stroke-width="1" stroke-linecap="butt" stroke-linejoin="miter" stroke-miterlimit="10" stroke-dasharray="" stroke-dashoffset="0" font-family="none" font-weight="none" font-size="none" text-anchor="none" style="mix-blend-mode: normal"><path d="M0,256v-256h256v256z" id="bgRectangle"></path></g><g fill="#0b666a" fill-rule="nonzero" stroke="none" stroke-width="1" stroke-linecap="butt" stroke-linejoin="miter" stroke-miterlimit="10" stroke-dasharray="" stroke-dashoffset="0" font-family="none" font-weight="none" font-size="none" text-anchor="none" style="mix-blend-mode: normal"><g transform="scale(5.12,5.12)"><path d="M13,6c-1.64497,0 -3,1.35503 -3,3v0.19531c-0.46304,-0.16982 -0.96925,-0.2416 -1.49609,-0.15625c-1.51327,0.24631 -2.50391,1.61654 -2.50391,3.06836v0.89258v13.54688l-0.37695,-0.38477l0.08398,0.09961c-1.14719,-1.52911 -3.42569,-1.6915 -4.77734,-0.33984c-0.16088,0.16078 -0.26215,0.37159 -0.28711,0.59766c-0.64911,1.01986 -0.81661,2.29183 -0.14844,3.34375c0.00632,0.01054 0.01283,0.02095 0.01953,0.03125l6.60156,9.60547c0.00258,0.00327 0.00519,0.00653 0.00781,0.00977c1.1193,1.58673 2.89103,2.49023 4.77148,2.49023h6.10547c1.74101,0 3.23495,-0.94434 4.29102,-2.25586l2.00977,1.9707c0.38867,0.38007 1.00976,0.38007 1.39844,0l2.00781,-1.96875c1.05544,1.3098 2.55216,2.25391 4.29297,2.25391h6.10547c1.88045,0 3.65218,-0.90347 4.77148,-2.49023c0.00262,-0.00324 0.00523,-0.00649 0.00781,-0.00977l6.60156,-9.60547c0.0067,-0.0103 0.01321,-0.02071 0.01953,-0.03125c0.66818,-1.05192 0.50068,-2.32389 -0.14844,-3.34375c-0.02496,-0.22607 -0.12623,-0.43688 -0.28711,-0.59766c-1.35165,-1.35165 -3.63015,-1.18927 -4.77734,0.33984l0.08398,-0.09961l-0.37695,0.38477v-13.54687v-0.89258c0,-1.45182 -0.99064,-2.82205 -2.50391,-3.06836c-0.52685,-0.08535 -1.03305,-0.01357 -1.49609,0.15625v-0.19531c0,-1.64497 -1.35503,-3 -3,-3c-1.37563,0 -2.53757,0.95226 -2.88477,2.22461c-0.34622,-0.14096 -0.72106,-0.22461 -1.11523,-0.22461c-1.64497,0 -3,1.35503 -3,3v1v0.19531c-0.46304,-0.16982 -0.96925,-0.2416 -1.49609,-0.15625c-1.51327,0.24631 -2.50391,1.61654 -2.50391,3.06836v0.89258v10.76758c-0.35292,0.21547 -0.69238,0.45271 -1,0.72852c-0.30752,-0.2757 -0.64712,-0.51305 -1,-0.72852v-10.76758v-0.89258c0,-1.45237 -0.99129,-2.82216 -2.50391,-3.06836c-0.52684,-0.08535 -1.03305,-0.01357 -1.49609,0.15625v-0.19531v-1c0,-1.64497 -1.35503,-3 -3,-3c-0.39417,0 -0.76901,0.08365 -1.11523,0.22461c-0.3472,-1.27235 -1.50914,-2.22461 -2.88477,-2.22461zM13,8c0.56503,0 1,0.43497 1,1v13c-0.0051,0.36064 0.18438,0.69608 0.49587,0.87789c0.3115,0.18181 0.69676,0.18181 1.00825,0c0.3115,-0.18181 0.50097,-0.51725 0.49587,-0.87789v-11c0,-0.56503 0.43497,-1 1,-1c0.56503,0 1,0.43497 1,1v1v11c-0.0051,0.36064 0.18438,0.69608 0.49587,0.87789c0.3115,0.18181 0.69676,0.18181 1.00825,0c0.3115,-0.18181 0.50097,-0.51725 0.49587,-0.87789v-8c0,-0.62076 0.50439,-1.0951 1.17578,-0.98633c0.45339,0.0738 0.82422,0.55212 0.82422,1.09375v0.89258v10.03516c-0.1813,-0.022 -0.36556,-0.03516 -0.55469,-0.03516c-2.9848,0 -5.44531,2.39925 -5.44531,5.35742c0,1.50614 0.64238,2.87318 1.65625,3.8418l3.20117,3.13867c-0.7633,1.02223 -1.79997,1.66211 -2.85742,1.66211h-6.10547c-1.25755,0 -2.37402,-0.56134 -3.13672,-1.64258l-6.57617,-9.56641v-0.00195c-0.29539,-0.4667 -0.22925,-1.06177 0.16211,-1.45312c0.51635,-0.51635 1.32487,-0.45794 1.76367,0.12695c0.0265,0.03438 0.0552,0.067 0.08594,0.09766l2.0918,2.13867c0.28426,0.29045 0.71602,0.37999 1.09235,0.22655c0.37632,-0.15344 0.62237,-0.51936 0.6225,-0.92577v-16v-0.89258c0,-0.54018 0.37149,-1.02006 0.82422,-1.09375c0.67139,-0.10877 1.17578,0.36557 1.17578,0.98633v11c-0.0051,0.36064 0.18438,0.69608 0.49587,0.87789c0.3115,0.18181 0.69676,0.18181 1.00825,0c0.3115,-0.18181 0.50097,-0.51725 0.49587,-0.87789v-13v-1c0,-0.56503 0.43497,-1 1,-1zM37,8c0.56503,0 1,0.43497 1,1v1v13c-0.0051,0.36064 0.18438,0.69608 0.49587,0.87789c0.3115,0.18181 0.69676,0.18181 1.00825,0c0.3115,-0.18181 0.50097,-0.51725 0.49587,-0.87789v-11c0,-0.62076 0.50439,-1.0951 1.17578,-0.98633c0.45273,0.07369 0.82422,0.55357 0.82422,1.09375v0.89258v16c0.00013,0.40641 0.24617,0.77232 0.6225,0.92577c0.37632,0.15344 0.80808,0.0639 1.09235,-0.22655l2.0918,-2.13867c0.03073,-0.03065 0.05944,-0.06327 0.08594,-0.09766c0.43881,-0.58489 1.24732,-0.6433 1.76367,-0.12695c0.39136,0.39136 0.4575,0.98638 0.16211,1.45312v0.00195l-6.57617,9.56641c-0.7627,1.08119 -1.87917,1.64258 -3.13672,1.64258h-6.10547c-1.05766,0 -2.09316,-0.63953 -2.85742,-1.66211l3.20117,-3.13867c1.01387,-0.96862 1.65625,-2.33566 1.65625,-3.8418c0,-2.95817 -2.46051,-5.35742 -5.44531,-5.35742c-0.18908,0 -0.37342,0.01317 -0.55469,0.03516v-10.03516v-0.89258c0,-0.54018 0.37149,-1.02006 0.82422,-1.09375c0.67139,-0.10877 1.17578,0.36557 1.17578,0.98633v8c-0.0051,0.36064 0.18438,0.69608 0.49587,0.87789c0.3115,0.18181 0.69676,0.18181 1.00825,0c0.3115,-0.18181 0.50097,-0.51725 0.49587,-0.87789v-11v-1c0,-0.56503 0.43497,-1 1,-1c0.56503,0 1,0.43497 1,1v11c-0.0051,0.36064 0.18438,0.69608 0.49587,0.87789c0.3115,0.18181 0.69676,0.18181 1.00825,0c0.3115,-0.18181 0.50097,-0.51725 0.49587,-0.87789v-13c0,-0.56503 0.43497,-1 1,-1zM21.44531,28c1.14158,0 2.12819,0.5417 2.75781,1.37109c0.18908,0.24933 0.48396,0.39579 0.79688,0.39579c0.31292,0 0.6078,-0.14646 0.79688,-0.39579c0.62938,-0.82908 1.61745,-1.37109 2.75781,-1.37109c1.9252,0 3.44531,1.50159 3.44531,3.35742c0,0.94187 -0.39298,1.7811 -1.03711,2.39648c-0.00328,0.00323 -0.00653,0.00649 -0.00977,0.00977l-5.95312,5.83594l-5.95312,-5.83594c-0.00323,-0.00328 -0.00649,-0.00653 -0.00977,-0.00977c-0.6441,-0.61535 -1.03711,-1.45462 -1.03711,-2.39648c0,-1.85583 1.52012,-3.35742 3.44531,-3.35742z"></path></g></g></svg>