<svg xmlns="http://www.w3.org/2000/svg" xmlns:xlink="http://www.w3.org/1999/xlink" viewBox="0,0,256,256" width="128px" height="128px" fill-rule="nonzero"><g fill="#0b666a" fill-rule="nonzero" stroke="none" stroke-width="1" stroke-linecap="butt" stroke-linejoin="miter" stroke-miterlimit="10" stroke-dasharray="" stroke-dashoffset="0" font-family="none" font-weight="none" font-size="none" text-anchor="none" style="mix-blend-mode: normal"><g transform="scale(4,4)"><path d="M37.54102,6.05273c-0.74444,-0.01705 -1.50119,-0.00887 -2.26562,0.02539c-3.05776,0.13704 -6.24725,0.69114 -9.3418,1.72266c-9.95936,3.31979 -16.66406,10.51562 -16.66406,10.51562c-0.24429,0.26096 -0.33079,0.63243 -0.2269,0.97447c0.10389,0.34203 0.38237,0.60265 0.73054,0.68366c0.34816,0.08101 0.71309,-0.0299 0.9573,-0.29094c0,0 6.4453,-6.85416 15.83594,-9.98438c5.81091,-1.93697 12.0753,-2.07157 16.77539,-0.89648c2.35005,0.58754 4.30101,1.50448 5.60742,2.60937c1.30641,1.1049 1.96875,2.33127 1.96875,3.75586c0,1.55448 -0.62127,3.02915 -1.49219,4.45117c-0.48527,-1.84015 -1.81039,-3.55725 -3.94531,-4.75781c-2.72006,-1.52961 -6.6915,-2.29829 -11.99609,-1.77344c-8.24191,0.8158 -14.3052,4.89002 -17.00781,9.13281c-1.35131,2.1214 -1.90404,4.36278 -1.18555,6.28516c0.7185,1.92237 2.71674,3.21851 5.61523,3.49023c0.39554,0.03709 0.8077,-0.00063 1.20703,0.02344c-0.04853,0.26459 -0.21836,0.51145 -0.21094,0.7832c0.02174,0.79619 0.37328,1.60563 1.01172,2.18359c0.63844,0.57796 1.50713,0.94744 2.59961,1.16016c0.27694,0.05392 0.72031,0.0069 1.0293,0.04102c-0.2221,0.14216 -0.52397,0.26787 -0.71484,0.41602c-1.13891,0.88392 -1.84659,2.0354 -1.54102,3.21875c0.30557,1.18335 1.42213,1.86133 2.79688,2.20703c0.54389,0.13677 1.20187,0.19001 1.87305,0.23047c-0.90269,0.73961 -1.59112,1.57033 -1.79687,2.54492c-0.24049,1.13915 0.36126,2.40427 1.50195,3.02344c0.43975,0.23869 1.00687,0.36192 1.58398,0.47656c-0.31121,0.31809 -0.60465,0.64471 -0.80469,1c-0.48973,0.86981 -0.6403,1.92987 -0.12891,2.80469c0.51139,0.87482 1.56404,1.31836 2.7832,1.31836c3.4245,0 5.28374,-1.23837 6.96484,-2.73047c-0.12162,0.35388 -0.25592,0.71588 -0.61133,1.14648c-1.80217,2.18346 -7.03732,4.68485 -16.39258,4.1582c-0.36307,-0.03152 -0.71454,0.13695 -0.91737,0.43972c-0.20283,0.30277 -0.22492,0.69191 -0.05764,1.01568c0.16728,0.32377 0.49743,0.53093 0.86173,0.54069c9.74074,0.54835 15.56454,-1.87332 18.04688,-4.88086c1.14981,-1.39309 1.46721,-3.02762 0.9082,-4.40234c0.5712,-0.97744 0.963,-1.90159 1.17773,-2.77344c0.41385,-0.24183 0.99114,-0.41724 1.3418,-0.68359c2.06816,-1.5709 3.01996,-3.54141 3.39258,-5.29883c0.2428,-1.14413 -0.09723,-2.28098 -0.76367,-3.22266c2.04691,-1.56557 3.6975,-3.33422 3.94531,-5.54102c0.20542,-1.82911 -0.40279,-3.51236 -1.55469,-4.89258c0.48735,-1.16059 0.83553,-2.21269 0.96875,-3.25977c2.14863,-2.29121 3.51172,-4.92412 3.51172,-7.875c0,-2.0754 -1.04658,-3.90366 -2.67773,-5.2832c-1.63115,-1.37955 -3.84736,-2.37978 -6.41406,-3.02148c-1.92503,-0.48128 -4.05182,-0.75939 -6.28516,-0.81055zM37.17188,14.92969c3.22324,0.0648 5.64948,0.7318 7.32813,1.67578c2.23819,1.25864 3.1582,2.93939 3.1582,4.54297c0,0.26468 -0.09855,0.60635 -0.11719,0.89258c-0.68905,0.68994 -1.39323,1.37728 -2.26172,2.00195c-0.21442,-0.09036 -0.37658,-0.22921 -0.60352,-0.30664c-3.63099,-1.23892 -8.81198,-1.00604 -15.27734,1.41016c-2.02512,0.75674 -3.85199,1.93587 -5.21094,3.26367c-0.52759,0.5155 -0.92103,1.07144 -1.29492,1.62891c-0.59728,-0.02429 -1.21232,0.01984 -1.79883,-0.03516c-2.43501,-0.22827 -3.51965,-1.1002 -3.92969,-2.19727c-0.41003,-1.09707 -0.13757,-2.72587 1,-4.51172c2.27514,-3.5717 7.83749,-7.4566 15.51758,-8.2168c1.2536,-0.12404 2.41582,-0.17004 3.49023,-0.14844zM39.58984,25.02148c1.27601,-0.00013 2.38516,0.15449 3.38477,0.38672c-0.58293,0.33167 -1.09126,0.70272 -1.72266,1.00586c-4.60022,2.20863 -10.31318,3.518 -15.85742,3.67188c0.0786,-0.08345 0.10641,-0.16109 0.19141,-0.24414c1.13614,-1.1101 2.76279,-2.16605 4.51367,-2.82031c3.08632,-1.1534 5.81945,-1.75802 8.15625,-1.94531c0.46442,-0.03722 0.90865,-0.05465 1.33398,-0.05469zM45.40625,26.29492c0.22061,0.12358 0.46676,0.23362 0.6582,0.37109c-0.20674,0.35699 -0.26032,0.71211 -0.52734,1.06445c-1.73174,2.28508 -4.84191,4.48434 -10.53711,5.71875c-4.42613,0.95912 -7.39731,1.06659 -9.10352,0.73438c-0.8531,-0.16611 -1.37079,-0.43736 -1.64062,-0.68164c-0.26983,-0.24428 -0.3469,-0.44004 -0.35547,-0.75391c-0.0046,-0.16977 0.1423,-0.45045 0.22266,-0.6875c6.25085,0.04481 12.73228,-1.31652 17.99609,-3.84375c1.18218,-0.56758 2.23983,-1.24293 3.28711,-1.92187zM47.46094,28.26953c0.43602,0.8061 0.65756,1.70015 0.54492,2.70313c-0.16531,1.47205 -1.54298,2.9656 -3.38477,4.35547c-0.61367,-0.43078 -1.30311,-0.80935 -2.10352,-1.10156c-0.62884,-0.22958 -1.49746,-0.228 -2.22852,-0.36719c3.18594,-1.32996 5.42037,-3.04625 6.8418,-4.92187c0.1673,-0.22076 0.18317,-0.44497 0.33008,-0.66797zM37.38672,35.39258c1.74585,0.0114 3.25443,0.27884 4.44336,0.71289c0.44141,0.16115 0.59161,0.4093 0.93945,0.60742c-3.00539,1.66434 -6.92606,2.90467 -10.62305,3.42578c-2.00047,0.2822 -3.56629,0.20513 -4.57617,-0.04883c-1.00988,-0.25395 -1.31477,-0.6478 -1.3457,-0.76758c-0.03093,-0.11978 0.01062,-0.50268 0.83008,-1.13867c0.81946,-0.63599 2.29985,-1.36292 4.4668,-1.96484c2.1368,-0.59368 4.11939,-0.83757 5.86523,-0.82617zM44.42188,37.96289c0.35168,0.51999 0.55144,1.01556 0.43164,1.58008c-0.2961,1.39654 -0.96963,2.83711 -2.62891,4.10547c-0.11957,-0.72492 -0.3471,-1.4029 -0.78711,-1.94922c-0.52179,-0.64787 -1.2531,-1.06234 -2.06445,-1.375c1.54743,-0.5533 3.08425,-1.14155 4.42188,-1.88672c0.24529,-0.13665 0.39028,-0.33166 0.62695,-0.47461zM36.26953,41.80469c0.60033,-0.00958 1.13867,0.03804 1.61133,0.13086c0.94532,0.18563 1.62461,0.55391 1.99805,1.01758c0.32395,0.40223 0.41435,0.9832 0.37695,1.69922c-1.66784,0.80419 -3.74359,1.50248 -6.91406,1.80078c-1.91911,0.18064 -3.15494,-0.07059 -3.72656,-0.38086c-0.57162,-0.31027 -0.5823,-0.45441 -0.49805,-0.85352c0.08426,-0.3991 0.53052,-1.09035 1.41406,-1.71484c0.88354,-0.62449 2.165,-1.18963 3.75781,-1.48828c0.71784,-0.13459 1.38014,-0.20136 1.98047,-0.21094zM36.11719,48.16016c1.10335,-0.0012 1.77307,0.24663 2.26562,0.55664c-1.67042,1.65484 -2.88768,2.71094 -6.28711,2.71094c-0.78083,0 -0.99137,-0.21648 -1.05664,-0.32812c-0.06527,-0.11165 -0.10662,-0.36644 0.14453,-0.8125c0.50229,-0.89213 2.16161,-2.12378 4.93359,-2.12695z"></path></g></g></svg>