<svg xmlns="http://www.w3.org/2000/svg" xmlns:xlink="http://www.w3.org/1999/xlink" viewBox="0,0,256,256" width="150px" height="150px" fill-rule="nonzero"><g fill="#0b666a" fill-rule="nonzero" stroke="none" stroke-width="1" stroke-linecap="butt" stroke-linejoin="miter" stroke-miterlimit="10" stroke-dasharray="" stroke-dashoffset="0" font-family="none" font-weight="none" font-size="none" text-anchor="none" style="mix-blend-mode: normal"><g transform="scale(5.12,5.12)"><path d="M23.28125,1c-1.80469,0 -3.36719,0.88281 -4.46875,2.15625c-0.375,-0.08984 -0.73437,-0.21875 -1.15625,-0.21875c-2.58203,0 -4.67969,1.85938 -5.25,4.28125c-0.64844,-0.27734 -1.34375,-0.46875 -2.09375,-0.46875c-3.01172,0 -5.46875,2.47656 -5.46875,5.5c0,0.17188 0.04297,0.30469 0.0625,0.46875c-2.19141,0.71484 -3.84375,2.69141 -3.84375,5.125c0,2.70313 2.02344,4.86328 4.59375,5.3125c-0.41016,0.73828 -0.66406,1.55469 -0.75,2.4375c-2.24219,0.6875 -3.90625,2.6875 -3.90625,5.15625c0,3.02344 2.45703,5.5 5.46875,5.5c0.18359,0 0.32813,-0.04297 0.5,-0.0625c0.71875,2.18359 2.67969,3.8125 5.09375,3.8125c1.68359,0 3.09375,-0.85547 4.09375,-2.0625c0.45313,0.10156 0.89453,0.21875 1.40625,0.21875c1.07422,0 2.08594,-0.25781 3,-0.6875c0.15234,0.75 0.4375,2.33594 0.4375,4.53125c0,1.37109 -0.39844,1.92578 -0.96875,2.34375c-0.57031,0.41797 -1.44141,0.65234 -2.40625,0.78125c-0.96484,0.12891 -1.94141,0.12109 -2.84375,0.4375c-0.44922,0.16016 -0.98437,0.45703 -1.25,1.03125c-0.26562,0.57422 -0.16797,1.21094 0.0625,1.78125c0.10938,0.36719 0.41406,0.63672 0.78906,0.70313c0.375,0.0625 0.75391,-0.08984 0.98047,-0.39844c0.22266,-0.30859 0.25,-0.71875 0.07422,-1.05469c-0.03516,-0.08984 -0.02344,-0.11719 -0.03125,-0.15625c0.01563,-0.00781 0.00781,0.00781 0.03125,0c0.37109,-0.12891 1.35938,-0.23047 2.4375,-0.375c1.07813,-0.14453 2.29688,-0.35547 3.34375,-1.125c1.04688,-0.76953 1.78125,-2.13672 1.78125,-3.96875c0,-1.83984 -0.22656,-3.42187 -0.40625,-4.46875c0.08203,0.00781 0.16797,0.03125 0.25,0.03125c1.08203,0 2.05078,-0.38281 2.90625,-0.90625c0.69922,0.59766 1.53906,1.06641 2.5,1.15625c-0.03125,0.47656 -0.04297,0.76172 -0.09375,1.625c-0.07812,1.37891 -0.17187,2.86328 -0.15625,3.59375c0.03516,1.66797 0.53516,2.89063 1.375,3.65625c0.83984,0.76563 1.89453,1.01563 2.78125,1.125c0.88672,0.10938 1.67969,0.10547 2.09375,0.1875c0.16016,0.03125 0.17188,0.05859 0.1875,0.0625c0.01563,0.55078 0.48047,0.98438 1.03125,0.96875c0.55078,-0.01562 0.98438,-0.48047 0.96875,-1.03125c0,-0.52344 -0.21484,-1.10156 -0.59375,-1.4375c-0.37891,-0.33594 -0.80078,-0.45312 -1.1875,-0.53125c-0.77344,-0.15625 -1.54297,-0.12891 -2.25,-0.21875c-0.70703,-0.08984 -1.30859,-0.24609 -1.6875,-0.59375c-0.37891,-0.34766 -0.69141,-0.94141 -0.71875,-2.25c-0.01172,-0.48828 0.04688,-2.03906 0.125,-3.40625c0.06641,-1.13672 0.12891,-1.83984 0.15625,-2.15625c0.64453,-0.32812 1.20313,-0.80078 1.65625,-1.375c0.60156,0.17578 1.21484,0.375 1.875,0.375c1.23047,0 2.35156,-0.36719 3.34375,-0.9375c0.00781,0 0.01953,0 0.03125,0c0.96484,1.55469 2.57813,2.6875 4.53125,2.6875c3.01172,0 5.46875,-2.47656 5.46875,-5.5c0,-1.625 -0.81641,-2.99219 -1.9375,-4c2.15625,-0.73828 3.75,-2.75 3.75,-5.15625c0,-2.55859 -1.78906,-4.61328 -4.15625,-5.21875c-0.49609,-1.875 -1.92187,-3.32422 -3.78125,-3.84375c0.30078,-0.67187 0.53125,-1.37109 0.53125,-2.15625c0,-3.02344 -2.45703,-5.5 -5.46875,-5.5c-1.00391,0 -1.91406,0.33594 -2.71875,0.8125c-0.94141,-1.64844 -2.63281,-2.8125 -4.65625,-2.8125c-0.90234,-2.19141 -2.96875,-3.78125 -5.46875,-3.78125zM23.28125,3c1.89063,0 3.44531,1.32031 3.875,3.09375c0.12109,0.49219 0.59375,0.8125 1.09375,0.75c0.23047,-0.03125 0.40234,-0.0625 0.5,-0.0625c1.58203,0 2.88672,1.07031 3.3125,2.53125c0.09766,0.33594 0.36719,0.59766 0.70313,0.6875c0.33984,0.08984 0.70313,-0.00781 0.95313,-0.25c0.62891,-0.60937 1.47266,-0.96875 2.40625,-0.96875c1.92188,0 3.46875,1.55078 3.46875,3.5c0,0.86328 -0.32031,1.62891 -0.84375,2.25c-0.26172,0.30078 -0.32031,0.72266 -0.14844,1.08203c0.16797,0.35938 0.53125,0.58594 0.92969,0.57422c0.06641,-0.00391 0.09375,-0.02734 0.125,-0.03125c1.76563,0 3.17969,1.3125 3.40625,3.03125c0.05469,0.45703 0.41797,0.82031 0.875,0.875c1.72656,0.20703 3.0625,1.63281 3.0625,3.4375c0,1.74219 -1.23828,3.1875 -2.875,3.46875c-0.46875,0.07422 -0.82031,0.46484 -0.84375,0.9375c-0.01562,0.3125 -0.05078,0.57813 -0.09375,0.8125c-0.07812,0.40234 0.09375,0.80859 0.4375,1.03125c0.93359,0.62891 1.5625,1.68359 1.5625,2.90625c0,1.94922 -1.54687,3.5 -3.46875,3.5c-1.41016,0 -2.61328,-0.84375 -3.15625,-2.0625c-0.16406,-0.36719 -0.53516,-0.60156 -0.9375,-0.59375c-0.23047,0.00391 -0.28906,0 -0.15625,0c-0.01953,0 -0.13672,-0.01172 -0.40625,-0.03125c-0.21875,-0.01953 -0.44141,0.03516 -0.625,0.15625c-0.76562,0.50391 -1.64844,0.78125 -2.625,0.78125c-0.64453,0 -1.27734,-0.11328 -1.84375,-0.34375c-0.46875,-0.19141 -1.00391,-0.00391 -1.25,0.4375c-0.42578,0.78906 -1.21094,1.34375 -2.15625,1.34375c-0.79297,0 -1.50781,-0.40234 -1.96875,-1c-0.34375,-0.43359 -0.97656,-0.5 -1.40625,-0.15625c-0.65234,0.53516 -1.46094,0.875 -2.34375,0.875c-0.53125,0 -1.00781,-0.14062 -1.46875,-0.34375c-0.31641,-0.13672 -0.68359,-0.10156 -0.96875,0.09375c-0.82422,0.53125 -1.79297,0.84375 -2.84375,0.84375c-0.47656,0 -0.94141,-0.10547 -1.4375,-0.25c-0.42969,-0.12109 -0.89062,0.05469 -1.125,0.4375c-0.61719,0.99609 -1.69141,1.65625 -2.9375,1.65625c-1.76562,0 -3.21484,-1.30859 -3.4375,-3.03125c-0.03516,-0.28516 -0.19531,-0.54297 -0.43359,-0.70703c-0.23828,-0.16016 -0.53516,-0.21094 -0.81641,-0.13672c-0.32031,0.08984 -0.61719,0.125 -0.90625,0.125c-1.92578,0 -3.46875,-1.55078 -3.46875,-3.5c0,-1.76953 1.29688,-3.18359 2.96875,-3.4375c0.50391,-0.07812 0.86719,-0.52344 0.84375,-1.03125c-0.00391,-0.05469 -0.02734,-0.06641 -0.03125,-0.09375c0,-0.05469 -0.00781,-0.07812 0,-0.0625c0.01953,-1.26172 0.57031,-2.36328 1.4375,-3.15625c0.33203,-0.30469 0.42188,-0.79297 0.21875,-1.19141c-0.20703,-0.40234 -0.65234,-0.61719 -1.09375,-0.52734c-0.26953,0.0625 -0.52344,0.09375 -0.78125,0.09375c-1.92187,0 -3.5,-1.55078 -3.5,-3.5c0,-1.80078 1.33984,-3.23047 3.0625,-3.4375c0.28516,-0.03516 0.54297,-0.19531 0.70703,-0.43359c0.16016,-0.23828 0.21094,-0.53516 0.13672,-0.81641c-0.08594,-0.32422 -0.125,-0.62109 -0.125,-0.90625c0,-1.94922 1.54688,-3.5 3.46875,-3.5c0.86328,0 1.63281,0.30469 2.25,0.84375c0.30859,0.26953 0.75,0.32422 1.11328,0.14063c0.36719,-0.1875 0.58203,-0.57812 0.54297,-0.98437c-0.01953,-0.20312 -0.03125,-0.30859 -0.03125,-0.3125c0,-1.94922 1.54688,-3.5 3.46875,-3.5c0.38281,0 0.73828,0.08203 1.125,0.21875c0.42578,0.15234 0.89844,-0.00391 1.15625,-0.375c0.72266,-1.07812 1.95703,-1.78125 3.34375,-1.78125z"></path></g></g></svg>